<?xml version="1.0" encoding="UTF-8" standalone="no"?>
<!-- Created with Inkscape (http://www.inkscape.org/) -->

<svg
   width="512"
   height="512"
   viewBox="0 0 512 512"
   version="1.1"
   id="svg1"
   xml:space="preserve"
   inkscape:version="1.4.2 (ebf0e940d0, 2025-05-08)"
   sodipodi:docname="wo3.svg"
   xmlns:inkscape="http://www.inkscape.org/namespaces/inkscape"
   xmlns:sodipodi="http://sodipodi.sourceforge.net/DTD/sodipodi-0.dtd"
   xmlns="http://www.w3.org/2000/svg"
   xmlns:svg="http://www.w3.org/2000/svg"><sodipodi:namedview
     id="namedview1"
     pagecolor="#505050"
     bordercolor="#ffffff"
     borderopacity="1"
     inkscape:showpageshadow="0"
     inkscape:pageopacity="0"
     inkscape:pagecheckerboard="1"
     inkscape:deskcolor="#505050"
     inkscape:document-units="px"
     inkscape:zoom="1.2520757"
     inkscape:cx="206.45717"
     inkscape:cy="271.94842"
     inkscape:window-width="1896"
     inkscape:window-height="1028"
     inkscape:window-x="0"
     inkscape:window-y="0"
     inkscape:window-maximized="1"
     inkscape:current-layer="svg1" /><defs
     id="defs1" /><path
     id="rect17"
     style="opacity:1;fill:#6e6e6e;fill-opacity:1;stroke-width:0.461"
     d="M 73.851562 5.5898438 C 49.309363 5.5898438 29.550781 25.348425 29.550781 49.890625 L 29.550781 462.85742 C 29.550781 487.39962 49.309363 507.1582 73.851562 507.1582 L 418.93164 507.1582 C 443.47384 507.1582 463.23047 487.39962 463.23047 462.85742 L 463.23047 107.33789 L 360.81641 5.5898438 L 73.851562 5.5898438 z " /><path
     id="rect17-26"
     style="opacity:1;fill:#ffffff;fill-opacity:1;stroke-width:0.438161"
     d="m 82.399782,18.014448 c -23.32632,0 -42.106018,18.779693 -42.106018,42.106013 V 452.6279 c 0,23.32632 18.779698,42.10601 42.106018,42.10601 H 410.38377 c 23.32632,0 42.10416,-18.77969 42.10416,-42.10601 V 114.72166 L 355.1477,18.014448 Z" /><path
     id="rect17-2"
     style="opacity:1;fill:#6e6e6e;fill-opacity:1;stroke-width:0.461"
     d="M 347.92969 5.5898438 L 347.92969 71.251953 C 347.92969 95.794153 367.68827 115.55078 392.23047 115.55078 L 463.23047 115.55078 L 463.23047 107.33789 L 360.81641 5.5898438 L 347.92969 5.5898438 z " /><path
     style="opacity:1;fill:#ffffff;fill-opacity:1;stroke-width:0.461"
     d="m 363.7959,26.95524 -0.39934,53.910479 c 0,0 0.25915,20.166491 24.35956,20.166511 4.59237,0 49.91711,-0.39934 49.91711,-0.39934 z"
     id="path18"
     sodipodi:nodetypes="ccscc" /><text
     xml:space="preserve"
     style="font-weight:bold;font-size:160px;line-height:0;font-family:sans-serif;-inkscape-font-specification:'sans-serif Bold';text-align:start;letter-spacing:-7.91px;writing-mode:lr-tb;direction:ltr;text-anchor:start;opacity:1;fill:#ffffff;stroke-width:0.461"
     x="73.731781"
     y="313.7215"
     id="text1"><tspan
       sodipodi:role="line"
       id="tspan1"
       x="73.731781"
       y="313.7215"
       style="font-size:160px;line-height:0"><tspan
         style="letter-spacing:-25.04px;fill:#f40439;fill-opacity:1"
         id="tspan3">W</tspan><tspan
         style="font-size:160px;letter-spacing:-11.85px"
         id="tspan2"><tspan
           style="fill:#f40439;fill-opacity:1"
           id="tspan5">O</tspan><tspan
           style="fill:#00e4ed;fill-opacity:1"
           id="tspan6">3</tspan></tspan></tspan></text><path
     style="opacity:1;fill:#f40439;fill-opacity:1;stroke-width:0.461"
     d="m 94.043836,43.128384 75.474674,-0.399337 c 0,0 22.16319,3.594032 22.7622,23.760544 0.59901,20.166513 0,47.321419 0,47.321419 0,0 2.35534,25.34493 -21.76386,25.75723 -23.3612,0.39934 -35.94032,-0.19967 -35.94032,-0.19967 l -27.15491,21.96353 c 0,0 -10.782094,3.84349 -10.782094,-6.18972 0,-11.18143 -0.199668,-14.5758 -0.199668,-14.5758 0,0 -23.961277,-0.72662 -24.159882,-24.55922 -0.199668,-23.960208 0.599005,-54.110143 0.599005,-54.110143 0,0 2.795359,-15.37447 21.164855,-18.768833 z"
     id="path6"
     sodipodi:nodetypes="ccscsccscscc" /><path
     style="opacity:1;fill:#ffffff;fill-opacity:0.36862746;stroke-width:0.461"
     d="m 107.82096,128.38681 0.39934,14.77546 19.36783,-15.57414 41.73071,-0.79867 c 0,0 9.98342,0.99834 10.58243,-13.17812 0.599,-14.176456 -0.39934,-48.319759 -0.39934,-48.319759 0,0 0.599,-8.785412 -13.37779,-9.983423 -13.97679,-1.19801 -71.081962,0.399337 -71.081962,0.399337 0,0 -9.184748,-0.199668 -9.584085,10.382759 -0.399337,10.582428 -0.199668,49.717446 -0.199668,49.717446 0,0 -2.067242,10.95059 13.777122,11.3811 0.672574,0.0183 8.785413,1.19801 8.785413,1.19801 z"
     id="path7"
     sodipodi:nodetypes="ccccscscscsc" /><path
     style="opacity:1;fill:#ffffff;fill-opacity:1;stroke-width:0.461"
     d="m 243.12386,59.722063 -0.14119,67.628527 69.18159,0.14119 -0.28238,-67.20497 z"
     id="path8" /><path
     style="opacity:1;fill:#f40439;fill-opacity:1;stroke-width:0.461"
     d="m 231.12297,53.933399 -0.28237,80.052981 c 0,0 -0.14119,5.64747 9.60071,6.49459 9.74189,0.84713 77.79398,0 77.79398,0 0,0 6.21223,-0.9883 6.35341,-5.92985 0.14119,-4.94154 0.42357,-79.488225 0.42357,-79.488225 0,0 -0.28238,-7.059346 -9.60071,-7.200533 -9.31834,-0.141187 -76.80568,0.141187 -76.80568,0.141187 0,0 -7.34172,-0.988308 -7.48291,5.92985 z"
     id="path9" /><path
     style="opacity:1;fill:#ffffff;fill-opacity:0.36835688;stroke-width:0.461"
     d="m 242.99649,59.700864 -0.0315,67.667376 69.18159,0.15884 -0.22943,-67.257918 z"
     id="path10" /><rect
     style="opacity:1;fill:#ffffff;fill-opacity:0.368627;stroke-width:0.461"
     id="rect10"
     width="49.817001"
     height="12.479278"
     x="252.58057"
     y="74.676003"
     rx="7.4000001" /><rect
     style="opacity:1;fill:#ffffff;fill-opacity:0.368627;stroke-width:0.461"
     id="rect10-6"
     width="49.817001"
     height="12.479278"
     x="253.69055"
     y="98.762199"
     rx="7.4000001" /><rect
     style="opacity:1;fill:#ffffff;fill-opacity:0.368627;stroke-width:0.461"
     id="rect11"
     width="53.91048"
     height="35.640816"
     x="97.238533"
     y="79.667709"
     rx="7.4000001" /><path
     style="opacity:1;fill:#6c6c6c;fill-opacity:0.36862704;stroke-width:0.461"
     d="m 302.69736,370.58463 0.19967,77.87069 h 95.44151 l 0.39934,-77.27169 z"
     id="path11" /><rect
     style="opacity:1;fill:#6c6c6c;fill-opacity:0.368627;stroke-width:0.461"
     id="rect12"
     width="69.883957"
     height="14.775465"
     x="316.07516"
     y="379.76938"
     rx="7.4000001" /><rect
     style="fill:#6c6c6c;fill-opacity:0.368627;stroke-width:0.461"
     id="rect12-3"
     width="69.883957"
     height="14.775465"
     x="315.3811"
     y="401.56586"
     rx="7.4000001" /><rect
     style="fill:#6c6c6c;fill-opacity:0.368627;stroke-width:0.461"
     id="rect12-3-2"
     width="69.883957"
     height="14.775465"
     x="315.39767"
     y="423.5675"
     rx="7.4000001" /><rect
     style="opacity:1;fill:#6c6c6c;fill-opacity:0.368627;stroke-width:0.461"
     id="rect13"
     width="121.19874"
     height="103.62791"
     x="290.31799"
     y="359.004"
     rx="7.4000001" /><rect
     style="opacity:1;fill:#6c6c6c;fill-opacity:0.36862704;stroke-width:0.461"
     id="rect14"
     width="170.27141"
     height="14.401065"
     x="84.994522"
     y="358.04999"
     rx="7.4000001" /><rect
     style="opacity:1;fill:#6c6c6c;fill-opacity:0.36862704;stroke-width:0.461"
     id="rect15"
     width="167.44768"
     height="14.401065"
     x="85.841644"
     y="400.68845"
     rx="7.4000001" /><rect
     style="opacity:1;fill:#6c6c6c;fill-opacity:0.36862704;stroke-width:0.461"
     id="rect16"
     width="132.15094"
     height="13.836317"
     x="84.1474"
     y="443.04453"
     rx="7.4000001" /></svg>
